<?xml version="1.0" encoding="UTF-8" standalone="no"?>
<!DOCTYPE svg PUBLIC "-//W3C//DTD SVG 1.1//EN" "http://www.w3.org/Graphics/SVG/1.1/DTD/svg11.dtd">
<svg xmlns="http://www.w3.org/2000/svg" version="1.1" viewBox="0 0 659 182">
<path fill="rgb(3,97,109)" fill-opacity="1.000" d="M 0.00 0.00 Q 329.50 0.00 659.00 0.00 Q 659.00 91.00 659.00 182.00 Q 329.50 182.00 0.00 182.00 Q 0.00 91.00 0.00 0.00 Z M 411.03 21.82 A 4.00 4.00 0 0 0 407.03 17.82 A 4.00 4.00 0 0 0 403.03 21.82 A 4.00 4.00 0 0 0 407.03 25.82 A 4.00 4.00 0 0 0 411.03 21.82 Z M 32.44 87.56 Q 42.79 93.07 55.94 91.44 Q 70.04 89.69 78.69 79.19 Q 85.84 70.54 86.75 59.50 Q 87.84 46.33 80.69 35.56 Q 77.38 30.70 72.50 27.25 Q 64.45 21.53 54.00 20.50 Q 40.51 19.17 29.31 26.31 Q 24.93 29.25 22.00 32.75 Q 15.02 41.11 13.75 52.25 Q 13.30 56.57 14.00 61.75 Q 15.68 74.14 25.25 82.75 Q 28.66 85.61 32.44 87.56 Z M 335.44 20.94 Q 334.73 20.96 335.00 23.25 Q 335.31 25.50 337.00 25.50 Q 358.00 25.50 379.48 25.50 Q 380.23 25.50 380.25 24.75 Q 380.30 22.63 380.22 21.31 Q 380.19 20.81 379.69 20.80 Q 357.73 20.17 335.44 20.94 Z M 117.18 80.40 Q 117.47 81.00 118.56 82.44 Q 125.54 91.63 137.25 91.75 Q 148.05 92.14 155.44 85.44 Q 163.58 78.05 164.00 66.25 Q 164.39 57.77 160.19 50.56 Q 157.23 45.46 152.19 42.31 Q 144.52 37.53 135.25 38.50 Q 128.80 39.17 123.50 43.00 Q 119.37 45.87 117.15 49.98 Q 116.50 51.18 116.50 49.81 Q 116.50 44.75 116.50 39.75 Q 116.50 38.78 115.53 38.76 Q 113.41 38.70 112.16 38.79 Q 111.50 38.83 111.50 39.49 Q 111.45 75.73 111.56 110.19 Q 111.56 110.69 112.04 110.83 Q 114.13 111.47 116.21 110.83 Q 116.69 110.69 116.69 110.19 Q 116.75 95.37 116.81 80.56 Q 116.81 80.06 117.18 80.40 Z M 223.81 44.19 Q 218.50 39.45 210.75 38.50 Q 199.46 37.11 191.19 44.44 Q 183.51 51.14 182.75 62.00 Q 181.83 71.50 186.44 79.56 Q 189.56 84.83 194.75 87.75 Q 204.70 93.35 216.06 91.06 Q 224.63 89.35 229.13 83.58 Q 229.44 83.19 229.21 82.74 Q 228.68 81.72 226.96 80.37 Q 226.56 80.06 226.23 80.44 Q 222.18 85.09 216.00 86.50 Q 210.01 87.86 203.75 86.50 Q 197.97 85.27 193.56 80.94 Q 189.63 76.93 188.63 72.44 Q 188.35 71.50 189.31 71.31 Q 210.35 67.27 232.14 62.90 Q 232.71 62.78 232.67 62.20 Q 231.78 51.10 223.81 44.19 Z M 261.81 49.18 Q 261.70 44.95 261.75 39.54 Q 261.75 38.91 261.13 38.84 Q 258.44 38.56 257.53 38.89 Q 257.06 39.06 257.06 39.56 Q 256.91 65.13 257.06 90.69 Q 257.06 91.19 257.52 91.40 Q 258.18 91.71 261.16 91.36 Q 262.00 91.27 262.00 90.42 Q 261.87 76.64 262.06 62.81 Q 261.91 55.38 266.06 50.06 Q 271.36 43.70 279.50 43.00 Q 288.99 42.19 294.84 47.95 Q 295.19 48.31 295.47 48.72 Q 299.18 54.42 299.00 62.75 Q 298.70 76.74 299.00 90.65 Q 299.00 91.50 299.85 91.50 Q 301.63 91.50 303.00 91.50 Q 304.23 91.50 304.25 90.27 Q 304.37 74.42 304.00 59.00 Q 303.79 50.27 298.69 44.56 Q 293.92 39.28 286.25 38.50 Q 282.29 37.82 277.25 38.75 Q 267.72 40.51 262.17 49.28 Q 261.82 49.81 261.81 49.18 Z M 445.11 48.50 Q 444.25 50.40 444.25 48.31 Q 444.25 44.00 444.25 39.52 Q 444.25 38.77 443.50 38.75 Q 441.38 38.70 439.91 38.79 Q 439.25 38.83 439.25 39.49 Q 439.25 65.50 439.25 90.50 Q 439.25 91.48 440.23 91.50 Q 442.37 91.55 443.84 91.46 Q 444.50 91.42 444.50 90.76 Q 444.24 75.62 444.50 61.50 Q 444.59 56.58 446.94 52.19 Q 449.74 46.94 455.19 44.69 Q 459.20 43.02 463.69 43.17 Q 464.19 43.19 464.22 42.69 Q 464.34 40.75 464.22 38.81 Q 464.19 38.31 463.69 38.31 Q 454.94 38.22 448.81 43.56 Q 445.91 46.09 445.11 48.50 Z M 491.55 48.94 Q 491.45 45.17 491.50 40.00 Q 491.51 38.90 490.42 38.79 Q 487.88 38.53 487.03 38.88 Q 486.56 39.06 486.56 39.56 Q 486.41 65.13 486.56 90.69 Q 486.56 91.19 487.02 91.39 Q 487.78 91.71 490.90 91.38 Q 491.75 91.28 491.75 90.43 Q 492.07 78.24 491.75 66.00 Q 491.56 58.76 493.94 52.94 Q 496.61 47.24 502.25 44.75 Q 508.70 41.91 515.75 43.50 Q 522.13 44.84 524.94 50.31 Q 527.55 55.63 527.50 62.50 Q 527.39 76.75 527.50 91.00 Q 527.50 91.50 528.00 91.50 Q 530.00 91.50 531.63 91.50 Q 532.50 91.50 532.50 90.63 Q 532.44 76.37 532.50 62.75 Q 532.23 54.65 537.06 49.06 Q 542.49 42.79 551.50 43.00 Q 555.04 42.81 558.44 44.06 Q 564.42 46.27 566.50 52.00 Q 567.85 54.42 568.00 57.25 Q 568.83 73.39 568.24 90.56 Q 568.23 91.48 569.15 91.50 Q 571.12 91.55 572.32 91.47 Q 573.21 91.42 573.22 90.53 Q 573.82 72.02 573.00 56.75 Q 572.62 52.30 570.44 48.31 Q 568.01 43.17 562.69 40.56 Q 553.88 36.26 544.25 39.50 Q 536.03 41.99 531.64 49.60 Q 530.85 50.94 530.25 49.50 Q 527.96 43.60 522.25 40.75 Q 516.25 37.76 509.25 38.50 Q 502.59 39.05 497.56 42.56 Q 494.22 45.01 491.82 49.01 Q 491.56 49.44 491.55 48.94 Z M 635.69 82.58 Q 635.80 85.93 635.75 90.46 Q 635.74 91.47 636.75 91.50 Q 638.59 91.55 639.84 91.46 Q 640.50 91.42 640.50 90.75 Q 640.54 74.37 640.50 59.25 Q 640.55 54.44 639.44 50.56 Q 637.24 42.93 629.94 40.06 Q 624.09 37.80 617.25 38.50 Q 607.76 39.47 599.83 45.17 Q 599.12 45.68 599.61 46.41 Q 600.25 47.38 601.19 48.78 Q 601.61 49.41 602.19 48.94 Q 608.14 44.21 616.25 43.00 Q 621.12 42.13 626.69 43.81 Q 632.41 45.54 634.50 51.75 Q 635.78 55.39 635.50 60.30 Q 635.47 62.02 633.75 62.00 Q 622.39 61.90 613.75 62.25 Q 605.02 62.61 600.56 68.06 Q 597.60 71.71 597.75 77.00 Q 597.96 84.42 603.56 88.19 Q 608.16 90.99 613.25 91.50 Q 620.64 92.24 627.19 89.69 Q 632.33 87.47 635.31 82.48 Q 635.67 81.87 635.69 82.58 Z M 409.50 39.39 A 0.64 0.64 0 0 0 408.86 38.75 L 405.14 38.75 A 0.64 0.64 0 0 0 404.50 39.39 L 404.50 90.85 A 0.64 0.64 0 0 0 405.14 91.49 L 408.86 91.49 A 0.64 0.64 0 0 0 409.50 90.85 L 409.50 39.39 Z M 340.81 60.31 Q 360.25 60.25 379.69 60.19 Q 380.19 60.19 380.22 59.69 Q 380.29 58.36 380.25 56.25 Q 380.23 55.50 379.48 55.50 Q 357.50 55.50 336.00 55.50 Q 335.00 55.50 335.00 56.50 Q 335.00 73.50 335.00 90.50 Q 335.00 91.48 335.98 91.50 Q 338.12 91.55 339.59 91.46 Q 340.26 91.42 340.25 90.76 Q 340.20 75.02 340.31 60.81 Q 340.31 60.31 340.81 60.31 Z M 76.33 143.69 Q 76.43 140.89 76.50 138.01 Q 76.54 136.19 74.73 136.02 Q 73.11 135.87 72.66 136.02 Q 72.19 136.19 72.17 136.69 Q 71.67 148.24 72.22 158.25 Q 72.25 158.75 72.73 158.90 Q 74.06 159.33 75.82 158.93 Q 76.31 158.81 76.39 158.32 Q 76.77 155.86 76.50 150.75 Q 76.30 146.98 79.06 145.81 Q 82.21 144.54 82.50 147.75 Q 82.90 152.25 82.76 158.00 Q 82.75 158.50 83.13 158.82 Q 83.68 159.27 86.21 158.94 Q 87.25 158.80 87.25 157.75 Q 87.20 153.50 87.25 149.25 Q 87.52 145.87 85.69 143.81 Q 83.09 140.91 78.81 142.56 Q 77.37 143.08 76.66 143.83 Q 76.31 144.19 76.33 143.69 Z M 129.31 144.19 Q 127.05 141.31 123.00 142.50 Q 120.03 143.47 119.19 146.94 Q 118.35 150.41 118.94 153.81 Q 119.75 157.84 123.00 159.00 Q 126.59 160.28 129.16 157.37 Q 129.50 157.00 129.68 157.47 Q 130.56 159.70 133.43 159.00 Q 133.99 158.86 134.00 158.28 Q 134.05 146.77 133.94 136.81 Q 133.94 136.31 133.48 136.11 Q 132.40 135.63 130.18 136.09 Q 129.69 136.19 129.62 136.68 Q 129.19 140.10 129.75 144.00 Q 129.88 144.87 129.31 144.19 Z M 218.00 136.53 A 0.52 0.52 0 0 0 217.48 136.01 L 214.02 136.01 A 0.52 0.52 0 0 0 213.50 136.53 L 213.50 158.49 A 0.52 0.52 0 0 0 214.02 159.01 L 217.48 159.01 A 0.52 0.52 0 0 0 218.00 158.49 L 218.00 136.53 Z M 463.85 144.07 Q 461.84 141.86 458.50 142.25 Q 455.34 142.49 453.94 145.69 Q 451.65 150.91 454.06 155.94 Q 455.33 158.82 458.82 159.30 Q 461.64 159.74 463.34 157.44 Q 464.28 156.17 464.69 158.06 Q 464.84 158.75 465.53 158.85 Q 468.56 159.36 468.50 157.25 Q 468.23 147.26 468.50 137.25 Q 468.50 136.09 467.34 136.01 Q 465.39 135.87 464.67 136.06 Q 464.19 136.19 464.12 136.68 Q 463.75 139.33 464.15 143.94 Q 464.19 144.44 463.85 144.07 Z M 582.50 136.42 A 0.43 0.43 0 0 0 582.07 135.99 L 578.43 135.99 A 0.43 0.43 0 0 0 578.00 136.42 L 578.00 158.56 A 0.43 0.43 0 0 0 578.43 158.99 L 582.07 158.99 A 0.43 0.43 0 0 0 582.50 158.56 L 582.50 136.42 Z M 144.3500 138.2443 A 2.44 2.15 0.1 0 0 141.9138 136.0900 A 2.44 2.15 0.1 0 0 139.4700 138.2357 A 2.44 2.15 0.1 0 0 141.9063 140.3900 A 2.44 2.15 0.1 0 0 144.3500 138.2443 Z M 174.6425 138.0586 A 2.44 2.16 -4.5 0 0 172.0405 136.0967 A 2.44 2.16 -4.5 0 0 169.7775 138.4414 A 2.44 2.16 -4.5 0 0 172.3795 140.4033 A 2.44 2.16 -4.5 0 0 174.6425 138.0586 Z M 252.3085 138.3155 A 2.45 2.13 2.0 0 0 249.9343 136.1013 A 2.45 2.13 2.0 0 0 247.4115 138.1445 A 2.45 2.13 2.0 0 0 249.7857 140.3587 A 2.45 2.13 2.0 0 0 252.3085 138.3155 Z M 521.6630 138.0433 A 2.49 2.12 -4.3 0 0 519.0211 136.1160 A 2.49 2.12 -4.3 0 0 516.6970 138.4167 A 2.49 2.12 -4.3 0 0 519.3389 140.3440 A 2.49 2.12 -4.3 0 0 521.6630 138.0433 Z M 57.44 141.81 Q 57.50 150.00 57.56 158.19 Q 57.56 158.69 58.03 158.86 Q 59.75 159.47 61.47 158.86 Q 61.94 158.69 61.97 158.19 Q 62.44 151.49 62.00 143.25 Q 61.86 140.69 65.02 141.47 Q 66.94 141.87 68.25 140.42 Q 68.26 140.42 68.00 138.50 Q 67.87 137.50 66.86 137.50 Q 59.75 137.50 52.25 137.50 Q 51.50 137.50 51.50 138.25 Q 51.50 139.25 51.50 140.27 Q 51.50 141.27 52.50 141.25 Q 55.16 141.21 56.94 141.29 Q 57.44 141.31 57.44 141.81 Z M 185.81 145.80 Q 187.37 145.75 188.94 145.70 Q 189.44 145.69 189.66 145.24 Q 190.21 144.12 189.66 143.01 Q 189.44 142.56 188.94 142.55 Q 187.50 142.50 186.14 142.46 Q 185.01 142.42 185.17 141.30 Q 185.51 138.97 183.83 139.02 Q 182.17 139.08 181.77 140.70 Q 181.59 141.44 180.98 142.28 Q 180.69 142.69 180.20 142.79 Q 178.92 143.06 178.50 144.25 Q 177.99 145.69 179.61 145.74 Q 180.75 145.69 180.75 146.83 Q 180.61 150.50 180.75 154.75 Q 180.79 158.07 183.56 158.94 Q 186.81 159.95 188.94 158.89 Q 189.75 158.56 189.89 157.70 Q 190.40 154.57 188.31 155.56 Q 185.27 157.02 185.24 153.65 Q 185.21 149.77 185.30 146.31 Q 185.31 145.81 185.81 145.80 Z M 323.56 145.80 Q 325.25 145.75 326.94 145.70 Q 327.44 145.69 327.64 145.23 Q 328.09 144.21 327.73 143.16 Q 327.56 142.69 327.08 142.56 Q 326.37 142.37 324.15 142.52 Q 322.65 142.63 323.02 141.18 Q 323.75 138.28 320.99 138.89 Q 320.50 139.00 320.18 139.38 Q 319.44 140.25 319.05 141.95 Q 318.94 142.44 318.46 142.57 Q 317.02 142.99 316.50 144.25 Q 315.80 145.95 317.76 145.80 Q 318.50 145.66 318.50 146.41 Q 318.48 150.63 318.50 154.00 Q 318.32 157.46 320.81 158.69 Q 324.38 160.44 327.24 158.66 Q 327.69 158.44 327.91 157.99 Q 328.46 156.87 327.91 155.76 Q 327.69 155.31 327.21 155.46 Q 325.63 155.97 324.42 155.62 Q 323.03 155.22 323.01 153.78 Q 322.96 148.99 323.04 146.31 Q 323.06 145.81 323.56 145.80 Z M 97.06 151.81 Q 101.63 151.75 106.19 151.69 Q 106.69 151.69 106.85 151.21 Q 108.07 147.71 105.19 144.31 Q 102.98 141.71 99.00 142.25 Q 95.19 142.43 93.50 145.00 Q 90.68 149.28 92.44 154.31 Q 93.16 157.22 96.25 158.50 Q 100.00 160.06 104.50 158.75 Q 106.42 158.31 105.91 155.53 Q 105.77 154.77 105.06 155.06 Q 101.41 156.72 98.50 155.50 Q 96.31 154.58 96.52 152.31 Q 96.56 151.81 97.06 151.81 Z M 159.21 157.24 Q 159.55 156.63 159.65 157.33 Q 160.43 161.26 158.25 162.50 Q 155.74 163.94 150.69 162.01 Q 149.88 161.77 149.77 162.61 Q 149.57 164.18 149.78 164.84 Q 149.94 165.31 150.41 165.46 Q 153.59 166.44 157.00 166.25 Q 160.62 166.24 162.69 163.94 Q 164.47 161.55 164.25 157.50 Q 163.87 150.52 164.25 143.50 Q 164.25 142.76 163.52 142.61 Q 160.08 141.90 160.02 144.00 Q 160.00 144.50 159.66 144.14 Q 157.43 141.75 154.32 142.20 Q 151.48 142.62 150.19 145.19 Q 148.39 149.23 149.44 154.31 Q 150.30 158.48 154.00 159.25 Q 157.81 159.94 159.21 157.24 Z M 174.50 143.10 A 0.66 0.66 0 0 0 173.84 142.44 L 170.66 142.44 A 0.66 0.66 0 0 0 170.00 143.10 L 170.00 158.34 A 0.66 0.66 0 0 0 170.66 159.00 L 173.84 159.00 A 0.66 0.66 0 0 0 174.50 158.34 L 174.50 143.10 Z M 203.09 157.36 Q 203.68 156.56 204.10 157.47 Q 204.96 159.35 207.21 159.01 Q 207.96 158.89 207.98 158.13 Q 208.16 151.01 207.75 146.50 Q 207.52 143.98 205.16 143.05 Q 200.15 141.09 195.51 143.34 Q 195.06 143.56 195.09 144.06 Q 195.18 145.58 196.09 146.21 Q 196.50 146.50 196.96 146.31 Q 198.91 145.50 201.25 145.50 Q 203.16 145.50 203.29 148.28 Q 203.31 148.76 202.83 148.74 Q 199.03 148.61 196.04 149.65 Q 193.61 150.50 193.31 153.06 Q 192.70 157.51 195.75 158.75 Q 200.69 160.75 203.09 157.36 Z M 234.81 155.94 Q 232.64 155.42 231.24 155.08 Q 230.75 155.00 230.56 155.46 Q 230.17 156.42 230.55 157.83 Q 230.69 158.31 231.16 158.48 Q 235.17 159.87 239.31 158.81 Q 242.96 157.88 243.00 154.02 Q 243.01 151.85 241.29 150.54 Q 239.43 149.33 236.44 148.06 Q 234.18 146.81 235.56 145.81 Q 237.26 144.60 240.43 146.36 Q 241.43 146.82 241.96 145.86 Q 242.62 144.68 242.59 143.94 Q 242.56 143.44 242.11 143.23 Q 238.55 141.56 234.25 142.50 Q 229.90 143.45 230.75 148.00 Q 231.20 150.43 234.44 151.56 Q 236.54 152.39 238.17 153.60 Q 239.59 154.50 238.19 155.44 Q 236.87 156.42 234.81 155.94 Z M 267.25 157.39 Q 267.68 156.81 267.71 157.53 Q 267.83 159.83 267.45 160.78 Q 266.65 162.80 264.47 162.81 Q 261.00 162.82 258.49 162.00 Q 258.05 161.86 257.90 162.30 Q 257.57 163.31 257.75 164.69 Q 257.81 165.19 258.28 165.36 Q 264.57 167.71 269.44 164.94 Q 272.19 163.43 272.25 159.50 Q 272.39 150.54 272.19 143.31 Q 272.19 142.81 271.71 142.67 Q 271.29 142.54 269.75 142.50 Q 267.95 142.45 268.20 143.48 Q 268.53 145.22 267.31 143.94 Q 265.39 141.78 262.25 142.25 Q 259.02 142.77 257.75 146.00 Q 255.73 151.13 257.94 156.06 Q 259.59 159.66 263.75 159.25 Q 266.18 159.02 267.25 157.39 Z M 282.88 143.83 Q 281.42 145.38 281.50 143.25 Q 281.54 142.27 280.00 142.50 Q 278.00 142.79 278.00 144.50 Q 278.00 151.13 278.00 157.75 Q 278.00 158.72 278.95 158.87 Q 281.62 159.30 282.09 158.80 Q 282.44 158.44 282.45 157.94 Q 282.54 154.59 282.50 149.77 Q 282.47 147.31 284.59 146.05 Q 286.19 145.10 287.42 146.13 Q 288.77 147.26 288.76 149.03 Q 288.70 154.63 288.80 158.19 Q 288.81 158.69 289.28 158.86 Q 290.62 159.35 292.57 158.92 Q 293.06 158.81 293.12 158.32 Q 292.90 156.19 293.25 152.00 Q 293.64 147.36 292.19 144.31 Q 290.33 141.35 285.81 142.31 Q 283.93 142.63 282.88 143.83 Z M 308.71 157.19 Q 308.66 157.53 309.06 158.44 Q 309.60 159.66 311.75 158.92 Q 312.50 158.67 312.50 157.88 Q 312.50 152.13 312.50 147.50 Q 312.50 147.00 312.39 146.51 Q 311.68 142.90 307.75 142.25 Q 303.67 141.57 300.25 143.26 Q 299.57 143.54 299.75 144.25 Q 300.14 145.80 300.61 146.19 Q 301.00 146.50 301.48 146.37 Q 302.60 145.87 304.50 145.50 Q 307.45 144.93 308.01 147.55 Q 308.28 148.80 307.00 148.75 Q 303.64 148.45 300.31 149.81 Q 297.54 150.95 297.75 154.50 Q 297.95 158.14 301.44 159.06 Q 305.23 160.06 307.90 157.35 Q 308.25 157.00 308.71 157.19 Z M 357.19 145.25 Q 356.80 145.29 356.75 143.75 Q 356.70 142.22 353.59 142.66 Q 353.06 142.73 353.05 143.27 Q 352.95 149.42 353.00 157.00 Q 353.01 158.62 355.00 159.00 Q 357.98 159.61 357.50 156.50 Q 356.84 152.21 357.81 149.06 Q 358.68 145.90 362.69 146.38 Q 363.19 146.44 363.35 145.96 Q 363.98 144.11 363.68 142.92 Q 363.56 142.44 363.08 142.33 Q 359.54 141.51 357.91 144.74 Q 357.69 145.19 357.19 145.25 Z M 372.31 154.94 Q 370.77 153.70 371.17 152.29 Q 371.31 151.81 371.81 151.82 Q 376.50 151.84 381.06 151.59 Q 381.56 151.56 381.69 151.08 Q 382.42 148.37 380.44 145.06 Q 378.87 142.53 375.00 142.25 Q 369.40 141.77 367.31 146.56 Q 365.06 151.74 368.06 156.19 Q 369.64 158.54 373.19 159.06 Q 375.85 159.45 379.44 158.69 Q 381.10 158.29 380.72 156.09 Q 380.49 154.79 379.25 155.25 Q 374.97 157.06 372.31 154.94 Z M 412.88 145.99 Q 414.28 146.80 414.27 148.43 Q 414.20 154.85 414.30 158.19 Q 414.31 158.69 414.78 158.86 Q 416.50 159.47 418.22 158.86 Q 418.69 158.69 418.66 158.19 Q 418.39 152.85 419.06 148.56 Q 419.61 145.04 422.97 145.93 Q 424.37 146.31 424.50 147.75 Q 424.89 152.20 424.76 158.00 Q 424.75 158.50 425.12 158.84 Q 425.58 159.26 427.71 158.97 Q 429.21 158.77 429.25 157.25 Q 429.82 150.78 429.00 146.25 Q 428.35 142.65 424.69 142.31 Q 421.50 141.90 419.56 143.56 Q 418.75 144.28 417.31 143.44 Q 413.00 140.92 408.54 144.07 Q 408.09 144.39 408.02 143.85 Q 407.76 141.97 404.88 142.65 Q 404.00 142.85 404.00 143.75 Q 404.00 150.75 404.00 157.75 Q 404.00 158.91 405.16 158.99 Q 407.11 159.13 407.83 158.94 Q 408.31 158.81 408.39 158.32 Q 408.80 156.80 408.50 153.25 Q 408.20 149.71 409.31 147.31 Q 410.69 144.73 412.88 145.99 Z M 444.60 157.53 Q 445.06 158.83 445.75 159.00 Q 448.35 159.65 448.48 156.97 Q 448.78 150.45 448.02 145.86 Q 447.73 144.13 446.19 143.31 Q 442.38 141.52 436.94 142.94 Q 434.71 143.52 436.37 145.80 Q 436.94 146.63 437.88 146.27 Q 439.34 145.69 441.00 145.50 Q 443.78 145.18 443.81 147.96 Q 443.82 148.78 443.00 148.75 Q 439.06 148.59 435.98 149.92 Q 434.53 150.55 434.06 152.06 Q 432.62 156.18 435.31 158.19 Q 439.51 161.31 444.05 157.38 Q 444.44 157.06 444.60 157.53 Z M 474.69 145.19 Q 472.26 149.11 473.69 154.06 Q 474.67 157.68 478.25 158.75 Q 482.88 160.13 486.73 158.39 Q 487.19 158.19 487.40 157.73 Q 487.97 156.50 487.40 155.27 Q 487.19 154.81 486.73 155.02 Q 483.09 156.72 479.81 155.44 Q 478.35 154.87 478.00 153.25 Q 477.58 151.70 479.19 151.75 Q 483.74 151.89 487.56 151.60 Q 488.06 151.56 488.16 151.07 Q 489.01 147.04 486.44 144.31 Q 484.15 141.89 480.25 142.25 Q 476.32 142.55 474.69 145.19 Z M 500.19 145.69 Q 499.24 149.05 502.06 150.69 Q 504.70 152.21 507.44 153.56 Q 509.38 154.60 507.41 155.58 Q 505.24 156.65 501.09 154.97 Q 500.14 154.58 499.98 155.60 Q 499.74 157.18 500.11 157.98 Q 500.31 158.44 500.78 158.62 Q 504.69 160.14 509.19 158.69 Q 512.64 157.57 512.20 153.18 Q 512.01 151.15 510.17 150.25 Q 507.73 149.07 504.69 147.31 Q 503.13 146.41 504.81 145.81 Q 506.79 145.11 509.47 146.08 Q 510.86 146.58 511.50 145.25 Q 512.00 144.20 511.97 143.81 Q 511.94 143.31 511.46 143.15 Q 507.74 141.89 504.19 142.44 Q 500.94 142.94 500.19 145.69 Z M 531.21 143.95 Q 530.80 141.91 527.67 142.71 Q 527.00 142.88 527.00 143.58 Q 527.00 150.63 527.00 157.75 Q 527.00 158.80 528.04 158.92 Q 530.57 159.21 531.24 158.90 Q 531.69 158.69 531.70 158.19 Q 531.79 154.40 531.75 149.19 Q 531.72 145.82 535.09 145.73 Q 537.24 145.67 537.31 148.94 Q 537.42 153.75 537.57 158.19 Q 537.56 158.69 538.01 158.92 Q 538.57 159.21 540.98 158.91 Q 542.00 158.78 542.00 157.75 Q 542.00 153.75 542.00 149.21 Q 542.00 147.26 543.63 146.19 Q 545.28 145.10 546.43 146.10 Q 547.84 147.33 547.79 149.20 Q 547.62 155.84 547.88 158.31 Q 547.94 158.81 548.42 158.92 Q 550.00 159.28 551.57 158.92 Q 552.06 158.81 552.12 158.32 Q 553.13 150.27 551.75 145.25 Q 550.94 142.48 547.50 142.25 Q 543.57 141.98 542.04 144.09 Q 541.75 144.50 541.39 144.15 Q 537.99 140.88 533.81 142.56 Q 532.34 143.15 531.63 144.05 Q 531.31 144.44 531.21 143.95 Z M 562.31 144.44 Q 561.34 142.02 558.93 142.52 Q 557.76 142.79 557.75 144.00 Q 557.70 154.98 557.81 165.44 Q 557.81 165.94 558.27 166.15 Q 558.93 166.46 561.18 166.20 Q 562.25 166.08 562.25 165.00 Q 562.25 161.50 562.25 157.95 Q 562.25 157.16 562.83 157.70 Q 565.32 159.93 568.69 158.94 Q 571.50 158.06 572.56 154.81 Q 574.21 149.77 571.79 144.77 Q 571.03 143.24 569.44 142.62 Q 566.04 141.06 563.56 143.31 Q 562.38 144.59 562.31 144.44 Z M 588.94 144.94 Q 586.80 148.02 587.25 152.25 Q 587.40 155.67 589.81 157.44 Q 594.00 160.49 600.31 158.56 Q 601.77 158.17 601.41 155.68 Q 601.25 154.67 600.31 155.06 Q 596.61 156.84 593.81 155.44 Q 591.49 154.28 591.84 152.43 Q 591.94 151.94 592.44 151.90 Q 596.26 151.61 600.75 151.75 Q 602.25 151.80 602.31 149.94 Q 602.54 145.77 599.69 143.56 Q 597.27 141.69 593.75 142.25 Q 590.48 142.71 588.94 144.94 Z M 144.25 143.15 A 0.65 0.65 0 0 0 143.60 142.50 L 140.40 142.50 A 0.65 0.65 0 0 0 139.75 143.15 L 139.75 158.35 A 0.65 0.65 0 0 0 140.40 159.00 L 143.60 159.00 A 0.65 0.65 0 0 0 144.25 158.35 L 144.25 143.15 Z M 252.24 143.01 A 0.50 0.50 0 0 0 251.74 142.51 L 248.22 142.51 A 0.50 0.50 0 0 0 247.72 143.01 L 247.72 158.47 A 0.50 0.50 0 0 0 248.22 158.97 L 251.74 158.97 A 0.50 0.50 0 0 0 252.24 158.47 L 252.24 143.01 Z M 343.39 158.12 Q 343.30 158.53 343.94 158.81 Q 345.55 159.52 346.74 158.91 Q 347.19 158.69 347.20 158.19 Q 347.34 150.75 347.20 143.31 Q 347.19 142.81 346.72 142.64 Q 345.00 142.03 343.28 142.64 Q 342.81 142.81 342.82 143.31 Q 342.90 149.05 342.49 153.19 Q 342.44 153.69 342.18 154.11 Q 340.37 157.03 337.73 155.22 Q 337.31 154.94 337.18 154.46 Q 336.04 150.32 336.50 144.50 Q 336.64 142.70 334.84 142.53 Q 333.11 142.37 332.66 142.52 Q 332.19 142.69 332.13 143.18 Q 331.31 150.61 332.50 155.75 Q 333.24 158.94 337.25 159.25 Q 340.27 159.55 342.26 157.61 Q 343.49 156.39 343.39 158.12 Z M 521.50 143.12 A 0.63 0.63 0 0 0 520.87 142.49 L 517.63 142.49 A 0.63 0.63 0 0 0 517.00 143.12 L 517.00 158.36 A 0.63 0.63 0 0 0 517.63 158.99 L 520.87 158.99 A 0.63 0.63 0 0 0 521.50 158.36 L 521.50 143.12 Z M 386.43 155.73 Q 385.57 160.09 385.14 161.87 Q 384.98 162.52 385.64 162.62 Q 388.10 162.93 388.56 161.56 Q 389.79 157.97 390.60 155.55 Q 390.69 155.06 390.22 154.88 Q 388.94 154.40 387.33 154.78 Q 386.58 154.96 386.43 155.73 Z"/>
<circle fill="rgb(236,173,43)" fill-opacity="1.000" cx="407.03" cy="21.82" r="4.00"/>
<path fill="rgb(236,173,43)" fill-opacity="1.000" d="M 54.00 20.50 Q 64.45 21.53 72.50 27.25 Q 77.38 30.70 80.69 35.56 Q 87.84 46.33 86.75 59.50 Q 85.84 70.54 78.69 79.19 Q 70.04 89.69 55.94 91.44 Q 42.79 93.07 32.44 87.56 Q 28.66 85.61 25.25 82.75 Q 15.68 74.14 14.00 61.75 Q 13.30 56.57 13.75 52.25 Q 15.02 41.11 22.00 32.75 Q 24.93 29.25 29.31 26.31 Q 40.51 19.17 54.00 20.50 Z M 81.7988 55.8039 A 31.64 31.17 -0.5 0 0 49.8880 24.9112 A 31.64 31.17 -0.5 0 0 18.5212 56.3561 A 31.64 31.17 -0.5 0 0 50.4320 87.2488 A 31.64 31.17 -0.5 0 0 81.7988 55.8039 Z"/>
<path fill="rgb(236,173,43)" fill-opacity="1.000" d="M 380.22 21.31 Q 380.30 22.63 380.25 24.75 Q 380.23 25.50 379.48 25.50 Q 358.00 25.50 337.00 25.50 Q 335.31 25.50 335.00 23.25 Q 334.73 20.96 335.44 20.94 Q 357.73 20.17 379.69 20.80 Q 380.19 20.81 380.22 21.31 Z"/>
<ellipse fill="rgb(3,97,109)" fill-opacity="1.000" cx="0" cy="0" rx="31.64" ry="31.17" transform="translate(50.16,56.08) rotate(-0.5)"/>
<path fill="rgb(236,173,43)" fill-opacity="1.000" d="M 152.19 42.31 Q 157.23 45.46 160.19 50.56 Q 164.39 57.77 164.00 66.25 Q 163.58 78.05 155.44 85.44 Q 148.05 92.14 137.25 91.75 Q 125.54 91.63 118.56 82.44 Q 117.47 81.00 117.18 80.40 Q 116.81 80.06 116.81 80.56 Q 116.75 95.37 116.69 110.19 Q 116.69 110.69 116.21 110.83 Q 114.13 111.47 112.04 110.83 Q 111.56 110.69 111.56 110.19 Q 111.45 75.73 111.50 39.49 Q 111.50 38.83 112.16 38.79 Q 113.41 38.70 115.53 38.76 Q 116.50 38.78 116.50 39.75 Q 116.50 44.75 116.50 49.81 Q 116.50 51.18 117.15 49.98 Q 119.37 45.87 123.50 43.00 Q 128.80 39.17 135.25 38.50 Q 144.52 37.53 152.19 42.31 Z M 137.6633 87.3597 A 22.29 21.34 90.3 0 0 159.1197 65.1817 A 22.29 21.34 90.3 0 0 137.8967 42.7803 A 22.29 21.34 90.3 0 0 116.4403 64.9583 A 22.29 21.34 90.3 0 0 137.6633 87.3597 Z"/>
<path fill="rgb(236,173,43)" fill-opacity="1.000" d="M 210.75 38.50 Q 218.50 39.45 223.81 44.19 Q 231.78 51.10 232.67 62.20 Q 232.71 62.78 232.14 62.90 Q 210.35 67.27 189.31 71.31 Q 188.35 71.50 188.63 72.44 Q 189.63 76.93 193.56 80.94 Q 197.97 85.27 203.75 86.50 Q 210.01 87.86 216.00 86.50 Q 222.18 85.09 226.23 80.44 Q 226.56 80.06 226.96 80.37 Q 228.68 81.72 229.21 82.74 Q 229.44 83.19 229.13 83.58 Q 224.63 89.35 216.06 91.06 Q 204.70 93.35 194.75 87.75 Q 189.56 84.83 186.44 79.56 Q 181.83 71.50 182.75 62.00 Q 183.51 51.14 191.19 44.44 Q 199.46 37.11 210.75 38.50 Z M 221.56 48.19 Q 216.31 43.11 208.50 42.75 Q 201.03 42.49 195.31 47.06 Q 187.32 53.46 187.51 66.64 Q 187.52 67.79 188.66 67.57 Q 206.87 64.01 227.18 60.02 Q 227.73 59.91 227.63 59.36 Q 226.27 52.74 221.56 48.19 Z"/>
<path fill="rgb(236,173,43)" fill-opacity="1.000" d="M 286.25 38.50 Q 293.92 39.28 298.69 44.56 Q 303.79 50.27 304.00 59.00 Q 304.37 74.42 304.25 90.27 Q 304.23 91.50 303.00 91.50 Q 301.63 91.50 299.85 91.50 Q 299.00 91.50 299.00 90.65 Q 298.70 76.74 299.00 62.75 Q 299.18 54.42 295.47 48.72 Q 295.19 48.31 294.84 47.95 Q 288.99 42.19 279.50 43.00 Q 271.36 43.70 266.06 50.06 Q 261.91 55.38 262.06 62.81 Q 261.87 76.64 262.00 90.42 Q 262.00 91.27 261.16 91.36 Q 258.18 91.71 257.52 91.40 Q 257.06 91.19 257.06 90.69 Q 256.91 65.13 257.06 39.56 Q 257.06 39.06 257.53 38.89 Q 258.44 38.56 261.13 38.84 Q 261.75 38.91 261.75 39.54 Q 261.70 44.95 261.81 49.18 Q 261.82 49.81 262.17 49.28 Q 267.72 40.51 277.25 38.75 Q 282.29 37.82 286.25 38.50 Z"/>
<path fill="rgb(236,173,43)" fill-opacity="1.000" d="M 464.22 38.81 Q 464.34 40.75 464.22 42.69 Q 464.19 43.19 463.69 43.17 Q 459.20 43.02 455.19 44.69 Q 449.74 46.94 446.94 52.19 Q 444.59 56.58 444.50 61.50 Q 444.24 75.62 444.50 90.76 Q 444.50 91.42 443.84 91.46 Q 442.37 91.55 440.23 91.50 Q 439.25 91.48 439.25 90.50 Q 439.25 65.50 439.25 39.49 Q 439.25 38.83 439.91 38.79 Q 441.38 38.70 443.50 38.75 Q 444.25 38.77 444.25 39.52 Q 444.25 44.00 444.25 48.31 Q 444.25 50.40 445.11 48.50 Q 445.91 46.09 448.81 43.56 Q 454.94 38.22 463.69 38.31 Q 464.19 38.31 464.22 38.81 Z"/>
<path fill="rgb(236,173,43)" fill-opacity="1.000" d="M 522.25 40.75 Q 527.96 43.60 530.25 49.50 Q 530.85 50.94 531.64 49.60 Q 536.03 41.99 544.25 39.50 Q 553.88 36.26 562.69 40.56 Q 568.01 43.17 570.44 48.31 Q 572.62 52.30 573.00 56.75 Q 573.82 72.02 573.22 90.53 Q 573.21 91.42 572.32 91.47 Q 571.12 91.55 569.15 91.50 Q 568.23 91.48 568.24 90.56 Q 568.83 73.39 568.00 57.25 Q 567.85 54.42 566.50 52.00 Q 564.42 46.27 558.44 44.06 Q 555.04 42.81 551.50 43.00 Q 542.49 42.79 537.06 49.06 Q 532.23 54.65 532.50 62.75 Q 532.44 76.37 532.50 90.63 Q 532.50 91.50 531.63 91.50 Q 530.00 91.50 528.00 91.50 Q 527.50 91.50 527.50 91.00 Q 527.39 76.75 527.50 62.50 Q 527.55 55.63 524.94 50.31 Q 522.13 44.84 515.75 43.50 Q 508.70 41.91 502.25 44.75 Q 496.61 47.24 493.94 52.94 Q 491.56 58.76 491.75 66.00 Q 492.07 78.24 491.75 90.43 Q 491.75 91.28 490.90 91.38 Q 487.78 91.71 487.02 91.39 Q 486.56 91.19 486.56 90.69 Q 486.41 65.13 486.56 39.56 Q 486.56 39.06 487.03 38.88 Q 487.88 38.53 490.42 38.79 Q 491.51 38.90 491.50 40.00 Q 491.45 45.17 491.55 48.94 Q 491.56 49.44 491.82 49.01 Q 494.22 45.01 497.56 42.56 Q 502.59 39.05 509.25 38.50 Q 516.25 37.76 522.25 40.75 Z"/>
<path fill="rgb(236,173,43)" fill-opacity="1.000" d="M 629.94 40.06 Q 637.24 42.93 639.44 50.56 Q 640.55 54.44 640.50 59.25 Q 640.54 74.37 640.50 90.75 Q 640.50 91.42 639.84 91.46 Q 638.59 91.55 636.75 91.50 Q 635.74 91.47 635.75 90.46 Q 635.80 85.93 635.69 82.58 Q 635.67 81.87 635.31 82.48 Q 632.33 87.47 627.19 89.69 Q 620.64 92.24 613.25 91.50 Q 608.16 90.99 603.56 88.19 Q 597.96 84.42 597.75 77.00 Q 597.60 71.71 600.56 68.06 Q 605.02 62.61 613.75 62.25 Q 622.39 61.90 633.75 62.00 Q 635.47 62.02 635.50 60.30 Q 635.78 55.39 634.50 51.75 Q 632.41 45.54 626.69 43.81 Q 621.12 42.13 616.25 43.00 Q 608.14 44.21 602.19 48.94 Q 601.61 49.41 601.19 48.78 Q 600.25 47.38 599.61 46.41 Q 599.12 45.68 599.83 45.17 Q 607.76 39.47 617.25 38.50 Q 624.09 37.80 629.94 40.06 Z M 604.69 70.69 Q 601.80 75.06 603.44 80.06 Q 604.19 82.84 606.75 84.75 Q 610.55 87.26 615.75 87.50 Q 623.43 87.86 628.94 84.19 Q 634.06 80.49 635.36 75.48 Q 635.50 75.00 635.50 74.50 Q 635.50 71.00 635.50 67.00 Q 635.50 66.00 634.50 66.00 Q 627.25 66.15 620.00 66.00 Q 614.45 65.89 610.00 67.00 Q 606.43 68.05 604.69 70.69 Z"/>
<rect fill="rgb(236,173,43)" fill-opacity="1.000" x="-2.50" y="-26.37" width="5.00" height="52.74" rx="0.64" transform="translate(407.00,65.12) rotate(0.0)"/>
<path fill="rgb(3,97,109)" fill-opacity="1.000" d="M 208.50 42.75 Q 216.31 43.11 221.56 48.19 Q 226.27 52.74 227.63 59.36 Q 227.73 59.91 227.18 60.02 Q 206.87 64.01 188.66 67.57 Q 187.52 67.79 187.51 66.64 Q 187.32 53.46 195.31 47.06 Q 201.03 42.49 208.50 42.75 Z"/>
<ellipse fill="rgb(3,97,109)" fill-opacity="1.000" cx="0" cy="0" rx="22.29" ry="21.34" transform="translate(137.78,65.07) rotate(90.3)"/>
<path fill="rgb(236,173,43)" fill-opacity="1.000" d="M 336.00 55.50 Q 357.50 55.50 379.48 55.50 Q 380.23 55.50 380.25 56.25 Q 380.29 58.36 380.22 59.69 Q 380.19 60.19 379.69 60.19 Q 360.25 60.25 340.81 60.31 Q 340.31 60.31 340.31 60.81 Q 340.20 75.02 340.25 90.76 Q 340.26 91.42 339.59 91.46 Q 338.12 91.55 335.98 91.50 Q 335.00 91.48 335.00 90.50 Q 335.00 73.50 335.00 56.50 Q 335.00 55.50 336.00 55.50 Z"/>
<path fill="rgb(3,97,109)" fill-opacity="1.000" d="M 620.00 66.00 Q 627.25 66.15 634.50 66.00 Q 635.50 66.00 635.50 67.00 Q 635.50 71.00 635.50 74.50 Q 635.50 75.00 635.36 75.48 Q 634.06 80.49 628.94 84.19 Q 623.43 87.86 615.75 87.50 Q 610.55 87.26 606.75 84.75 Q 604.19 82.84 603.44 80.06 Q 601.80 75.06 604.69 70.69 Q 606.43 68.05 610.00 67.00 Q 614.45 65.89 620.00 66.00 Z"/>
<path fill="rgb(236,173,43)" fill-opacity="1.000" d="M 74.73 136.02 Q 76.54 136.19 76.50 138.01 Q 76.43 140.89 76.33 143.69 Q 76.31 144.19 76.66 143.83 Q 77.37 143.08 78.81 142.56 Q 83.09 140.91 85.69 143.81 Q 87.52 145.87 87.25 149.25 Q 87.20 153.50 87.25 157.75 Q 87.25 158.80 86.21 158.94 Q 83.68 159.27 83.13 158.82 Q 82.75 158.50 82.76 158.00 Q 82.90 152.25 82.50 147.75 Q 82.21 144.54 79.06 145.81 Q 76.30 146.98 76.50 150.75 Q 76.77 155.86 76.39 158.32 Q 76.31 158.81 75.82 158.93 Q 74.06 159.33 72.73 158.90 Q 72.25 158.75 72.22 158.25 Q 71.67 148.24 72.17 136.69 Q 72.19 136.19 72.66 136.02 Q 73.11 135.87 74.73 136.02 Z"/>
<path fill="rgb(236,173,43)" fill-opacity="1.000" d="M 133.94 136.81 Q 134.05 146.77 134.00 158.28 Q 133.99 158.86 133.43 159.00 Q 130.56 159.70 129.68 157.47 Q 129.50 157.00 129.16 157.37 Q 126.59 160.28 123.00 159.00 Q 119.75 157.84 118.94 153.81 Q 118.35 150.41 119.19 146.94 Q 120.03 143.47 123.00 142.50 Q 127.05 141.31 129.31 144.19 Q 129.88 144.87 129.75 144.00 Q 129.19 140.10 129.62 136.68 Q 129.69 136.19 130.18 136.09 Q 132.40 135.63 133.48 136.11 Q 133.94 136.31 133.94 136.81 Z M 126.5348 155.7199 A 4.99 3.39 89.6 0 0 129.8899 150.7063 A 4.99 3.39 89.6 0 0 126.4652 145.7401 A 4.99 3.39 89.6 0 0 123.1101 150.7537 A 4.99 3.39 89.6 0 0 126.5348 155.7199 Z"/>
<rect fill="rgb(236,173,43)" fill-opacity="1.000" x="-2.25" y="-11.50" width="4.50" height="23.00" rx="0.52" transform="translate(215.75,147.51) rotate(0.0)"/>
<path fill="rgb(236,173,43)" fill-opacity="1.000" d="M 467.34 136.01 Q 468.50 136.09 468.50 137.25 Q 468.23 147.26 468.50 157.25 Q 468.56 159.36 465.53 158.85 Q 464.84 158.75 464.69 158.06 Q 464.28 156.17 463.34 157.44 Q 461.64 159.74 458.82 159.30 Q 455.33 158.82 454.06 155.94 Q 451.65 150.91 453.94 145.69 Q 455.34 142.49 458.50 142.25 Q 461.84 141.86 463.85 144.07 Q 464.19 144.44 464.15 143.94 Q 463.75 139.33 464.12 136.68 Q 464.19 136.19 464.67 136.06 Q 465.39 135.87 467.34 136.01 Z M 460.9613 155.7900 A 4.98 3.39 90.1 0 0 464.3600 150.8159 A 4.98 3.39 90.1 0 0 460.9787 145.8300 A 4.98 3.39 90.1 0 0 457.5800 150.8041 A 4.98 3.39 90.1 0 0 460.9613 155.7900 Z"/>
<rect fill="rgb(236,173,43)" fill-opacity="1.000" x="-2.25" y="-11.50" width="4.50" height="23.00" rx="0.43" transform="translate(580.25,147.49) rotate(0.0)"/>
<ellipse fill="rgb(236,173,43)" fill-opacity="1.000" cx="0" cy="0" rx="2.44" ry="2.15" transform="translate(141.91,138.24) rotate(0.1)"/>
<ellipse fill="rgb(236,173,43)" fill-opacity="1.000" cx="0" cy="0" rx="2.44" ry="2.16" transform="translate(172.21,138.25) rotate(-4.5)"/>
<ellipse fill="rgb(236,173,43)" fill-opacity="1.000" cx="0" cy="0" rx="2.45" ry="2.13" transform="translate(249.86,138.23) rotate(2.0)"/>
<ellipse fill="rgb(236,173,43)" fill-opacity="1.000" cx="0" cy="0" rx="2.49" ry="2.12" transform="translate(519.18,138.23) rotate(-4.3)"/>
<path fill="rgb(236,173,43)" fill-opacity="1.000" d="M 52.25 137.50 Q 59.75 137.50 66.86 137.50 Q 67.87 137.50 68.00 138.50 Q 68.26 140.42 68.25 140.42 Q 66.94 141.87 65.02 141.47 Q 61.86 140.69 62.00 143.25 Q 62.44 151.49 61.97 158.19 Q 61.94 158.69 61.47 158.86 Q 59.75 159.47 58.03 158.86 Q 57.56 158.69 57.56 158.19 Q 57.50 150.00 57.44 141.81 Q 57.44 141.31 56.94 141.29 Q 55.16 141.21 52.50 141.25 Q 51.50 141.27 51.50 140.27 Q 51.50 139.25 51.50 138.25 Q 51.50 137.50 52.25 137.50 Z"/>
<path fill="rgb(236,173,43)" fill-opacity="1.000" d="M 183.83 139.02 Q 185.51 138.97 185.17 141.30 Q 185.01 142.42 186.14 142.46 Q 187.50 142.50 188.94 142.55 Q 189.44 142.56 189.66 143.01 Q 190.21 144.12 189.66 145.24 Q 189.44 145.69 188.94 145.70 Q 187.37 145.75 185.81 145.80 Q 185.31 145.81 185.30 146.31 Q 185.21 149.77 185.24 153.65 Q 185.27 157.02 188.31 155.56 Q 190.40 154.57 189.89 157.70 Q 189.75 158.56 188.94 158.89 Q 186.81 159.95 183.56 158.94 Q 180.79 158.07 180.75 154.75 Q 180.61 150.50 180.75 146.83 Q 180.75 145.69 179.61 145.74 Q 177.99 145.69 178.50 144.25 Q 178.92 143.06 180.20 142.79 Q 180.69 142.69 180.98 142.28 Q 181.59 141.44 181.77 140.70 Q 182.17 139.08 183.83 139.02 Z"/>
<path fill="rgb(236,173,43)" fill-opacity="1.000" d="M 320.99 138.89 Q 323.75 138.28 323.02 141.18 Q 322.65 142.63 324.15 142.52 Q 326.37 142.37 327.08 142.56 Q 327.56 142.69 327.73 143.16 Q 328.09 144.21 327.64 145.23 Q 327.44 145.69 326.94 145.70 Q 325.25 145.75 323.56 145.80 Q 323.06 145.81 323.04 146.31 Q 322.96 148.99 323.01 153.78 Q 323.03 155.22 324.42 155.62 Q 325.63 155.97 327.21 155.46 Q 327.69 155.31 327.91 155.76 Q 328.46 156.87 327.91 157.99 Q 327.69 158.44 327.24 158.66 Q 324.38 160.44 320.81 158.69 Q 318.32 157.46 318.50 154.00 Q 318.48 150.63 318.50 146.41 Q 318.50 145.66 317.76 145.80 Q 315.80 145.95 316.50 144.25 Q 317.02 142.99 318.46 142.57 Q 318.94 142.44 319.05 141.95 Q 319.44 140.25 320.18 139.38 Q 320.50 139.00 320.99 138.89 Z"/>
<path fill="rgb(236,173,43)" fill-opacity="1.000" d="M 99.00 142.25 Q 102.98 141.71 105.19 144.31 Q 108.07 147.71 106.85 151.21 Q 106.69 151.69 106.19 151.69 Q 101.63 151.75 97.06 151.81 Q 96.56 151.81 96.52 152.31 Q 96.31 154.58 98.50 155.50 Q 101.41 156.72 105.06 155.06 Q 105.77 154.77 105.91 155.53 Q 106.42 158.31 104.50 158.75 Q 100.00 160.06 96.25 158.50 Q 93.16 157.22 92.44 154.31 Q 90.68 149.28 93.50 145.00 Q 95.19 142.43 99.00 142.25 Z M 100.81 145.69 Q 97.57 144.36 96.68 147.95 Q 96.56 148.44 97.04 148.58 Q 98.80 149.12 102.07 148.64 Q 102.56 148.56 102.67 148.08 Q 103.06 146.61 100.81 145.69 Z"/>
<path fill="rgb(236,173,43)" fill-opacity="1.000" d="M 154.32 142.20 Q 157.43 141.75 159.66 144.14 Q 160.00 144.50 160.02 144.00 Q 160.08 141.90 163.52 142.61 Q 164.25 142.76 164.25 143.50 Q 163.87 150.52 164.25 157.50 Q 164.47 161.55 162.69 163.94 Q 160.62 166.24 157.00 166.25 Q 153.59 166.44 150.41 165.46 Q 149.94 165.31 149.78 164.84 Q 149.57 164.18 149.77 162.61 Q 149.88 161.77 150.69 162.01 Q 155.74 163.94 158.25 162.50 Q 160.43 161.26 159.65 157.33 Q 159.55 156.63 159.21 157.24 Q 157.81 159.94 154.00 159.25 Q 150.30 158.48 149.44 154.31 Q 148.39 149.23 150.19 145.19 Q 151.48 142.62 154.32 142.20 Z M 159.9089 148.8579 A 2.89 2.89 0 0 0 156.9443 146.0446 L 156.4044 146.0587 A 2.89 2.89 0 0 0 153.5911 149.0234 L 153.6911 152.8421 A 2.89 2.89 0 0 0 156.6557 155.6554 L 157.1956 155.6413 A 2.89 2.89 0 0 0 160.0089 152.6766 L 159.9089 148.8579 Z"/>
<rect fill="rgb(236,173,43)" fill-opacity="1.000" x="-2.25" y="-8.28" width="4.50" height="16.56" rx="0.66" transform="translate(172.25,150.72) rotate(0.0)"/>
<path fill="rgb(236,173,43)" fill-opacity="1.000" d="M 205.16 143.05 Q 207.52 143.98 207.75 146.50 Q 208.16 151.01 207.98 158.13 Q 207.96 158.89 207.21 159.01 Q 204.96 159.35 204.10 157.47 Q 203.68 156.56 203.09 157.36 Q 200.69 160.75 195.75 158.75 Q 192.70 157.51 193.31 153.06 Q 193.61 150.50 196.04 149.65 Q 199.03 148.61 202.83 148.74 Q 203.31 148.76 203.29 148.28 Q 203.16 145.50 201.25 145.50 Q 198.91 145.50 196.96 146.31 Q 196.50 146.50 196.09 146.21 Q 195.18 145.58 195.09 144.06 Q 195.06 143.56 195.51 143.34 Q 200.15 141.09 205.16 143.05 Z M 199.19 155.81 Q 203.42 156.53 203.49 152.00 Q 203.50 151.50 203.00 151.43 Q 200.44 151.08 198.72 152.28 Q 198.31 152.56 198.13 153.03 Q 197.24 155.48 199.19 155.81 Z"/>
<path fill="rgb(236,173,43)" fill-opacity="1.000" d="M 242.59 143.94 Q 242.62 144.68 241.96 145.86 Q 241.43 146.82 240.43 146.36 Q 237.26 144.60 235.56 145.81 Q 234.18 146.81 236.44 148.06 Q 239.43 149.33 241.29 150.54 Q 243.01 151.85 243.00 154.02 Q 242.96 157.88 239.31 158.81 Q 235.17 159.87 231.16 158.48 Q 230.69 158.31 230.55 157.83 Q 230.17 156.42 230.56 155.46 Q 230.75 155.00 231.24 155.08 Q 232.64 155.42 234.81 155.94 Q 236.87 156.42 238.19 155.44 Q 239.59 154.50 238.17 153.60 Q 236.54 152.39 234.44 151.56 Q 231.20 150.43 230.75 148.00 Q 229.90 143.45 234.25 142.50 Q 238.55 141.56 242.11 143.23 Q 242.56 143.44 242.59 143.94 Z"/>
<path fill="rgb(236,173,43)" fill-opacity="1.000" d="M 262.25 142.25 Q 265.39 141.78 267.31 143.94 Q 268.53 145.22 268.20 143.48 Q 267.95 142.45 269.75 142.50 Q 271.29 142.54 271.71 142.67 Q 272.19 142.81 272.19 143.31 Q 272.39 150.54 272.25 159.50 Q 272.19 163.43 269.44 164.94 Q 264.57 167.71 258.28 165.36 Q 257.81 165.19 257.75 164.69 Q 257.57 163.31 257.90 162.30 Q 258.05 161.86 258.49 162.00 Q 261.00 162.82 264.47 162.81 Q 266.65 162.80 267.45 160.78 Q 267.83 159.83 267.71 157.53 Q 267.68 156.81 267.25 157.39 Q 266.18 159.02 263.75 159.25 Q 259.59 159.66 257.94 156.06 Q 255.73 151.13 257.75 146.00 Q 259.02 142.77 262.25 142.25 Z M 267.9448 149.0254 A 3.06 3.06 0 0 0 264.8424 146.0084 L 264.5424 146.0126 A 3.06 3.06 0 0 0 261.5255 149.1150 L 261.5752 152.6747 A 3.06 3.06 0 0 0 264.6776 155.6916 L 264.9776 155.6874 A 3.06 3.06 0 0 0 267.9945 152.5850 L 267.9448 149.0254 Z"/>
<path fill="rgb(236,173,43)" fill-opacity="1.000" d="M 285.81 142.31 Q 290.33 141.35 292.19 144.31 Q 293.64 147.36 293.25 152.00 Q 292.90 156.19 293.12 158.32 Q 293.06 158.81 292.57 158.92 Q 290.62 159.35 289.28 158.86 Q 288.81 158.69 288.80 158.19 Q 288.70 154.63 288.76 149.03 Q 288.77 147.26 287.42 146.13 Q 286.19 145.10 284.59 146.05 Q 282.47 147.31 282.50 149.77 Q 282.54 154.59 282.45 157.94 Q 282.44 158.44 282.09 158.80 Q 281.62 159.30 278.95 158.87 Q 278.00 158.72 278.00 157.75 Q 278.00 151.13 278.00 144.50 Q 278.00 142.79 280.00 142.50 Q 281.54 142.27 281.50 143.25 Q 281.42 145.38 282.88 143.83 Q 283.93 142.63 285.81 142.31 Z"/>
<path fill="rgb(236,173,43)" fill-opacity="1.000" d="M 307.75 142.25 Q 311.68 142.90 312.39 146.51 Q 312.50 147.00 312.50 147.50 Q 312.50 152.13 312.50 157.88 Q 312.50 158.67 311.75 158.92 Q 309.60 159.66 309.06 158.44 Q 308.66 157.53 308.71 157.19 Q 308.25 157.00 307.90 157.35 Q 305.23 160.06 301.44 159.06 Q 297.95 158.14 297.75 154.50 Q 297.54 150.95 300.31 149.81 Q 303.64 148.45 307.00 148.75 Q 308.28 148.80 308.01 147.55 Q 307.45 144.93 304.50 145.50 Q 302.60 145.87 301.48 146.37 Q 301.00 146.50 300.61 146.19 Q 300.14 145.80 299.75 144.25 Q 299.57 143.54 300.25 143.26 Q 303.67 141.57 307.75 142.25 Z M 302.69 153.19 Q 301.10 156.34 304.50 156.00 Q 307.67 155.69 307.94 152.94 Q 308.07 151.63 306.50 151.50 Q 303.66 151.27 302.69 153.19 Z"/>
<path fill="rgb(236,173,43)" fill-opacity="1.000" d="M 353.59 142.66 Q 356.70 142.22 356.75 143.75 Q 356.80 145.29 357.19 145.25 Q 357.69 145.19 357.91 144.74 Q 359.54 141.51 363.08 142.33 Q 363.56 142.44 363.68 142.92 Q 363.98 144.11 363.35 145.96 Q 363.19 146.44 362.69 146.38 Q 358.68 145.90 357.81 149.06 Q 356.84 152.21 357.50 156.50 Q 357.98 159.61 355.00 159.00 Q 353.01 158.62 353.00 157.00 Q 352.95 149.42 353.05 143.27 Q 353.06 142.73 353.59 142.66 Z"/>
<path fill="rgb(236,173,43)" fill-opacity="1.000" d="M 375.00 142.25 Q 378.87 142.53 380.44 145.06 Q 382.42 148.37 381.69 151.08 Q 381.56 151.56 381.06 151.59 Q 376.50 151.84 371.81 151.82 Q 371.31 151.81 371.17 152.29 Q 370.77 153.70 372.31 154.94 Q 374.97 157.06 379.25 155.25 Q 380.49 154.79 380.72 156.09 Q 381.10 158.29 379.44 158.69 Q 375.85 159.45 373.19 159.06 Q 369.64 158.54 368.06 156.19 Q 365.06 151.74 367.31 146.56 Q 369.40 141.77 375.00 142.25 Z M 371.52 147.89 Q 371.18 148.67 372.03 148.71 Q 373.95 148.79 376.75 148.75 Q 377.41 148.74 377.30 148.09 Q 377.14 146.12 375.44 145.56 Q 372.87 144.73 371.52 147.89 Z"/>
<path fill="rgb(236,173,43)" fill-opacity="1.000" d="M 417.31 143.44 Q 418.75 144.28 419.56 143.56 Q 421.50 141.90 424.69 142.31 Q 428.35 142.65 429.00 146.25 Q 429.82 150.78 429.25 157.25 Q 429.21 158.77 427.71 158.97 Q 425.58 159.26 425.12 158.84 Q 424.75 158.50 424.76 158.00 Q 424.89 152.20 424.50 147.75 Q 424.37 146.31 422.97 145.93 Q 419.61 145.04 419.06 148.56 Q 418.39 152.85 418.66 158.19 Q 418.69 158.69 418.22 158.86 Q 416.50 159.47 414.78 158.86 Q 414.31 158.69 414.30 158.19 Q 414.20 154.85 414.27 148.43 Q 414.28 146.80 412.88 145.99 Q 410.69 144.73 409.31 147.31 Q 408.20 149.71 408.50 153.25 Q 408.80 156.80 408.39 158.32 Q 408.31 158.81 407.83 158.94 Q 407.11 159.13 405.16 158.99 Q 404.00 158.91 404.00 157.75 Q 404.00 150.75 404.00 143.75 Q 404.00 142.85 404.88 142.65 Q 407.76 141.97 408.02 143.85 Q 408.09 144.39 408.54 144.07 Q 413.00 140.92 417.31 143.44 Z"/>
<path fill="rgb(236,173,43)" fill-opacity="1.000" d="M 446.19 143.31 Q 447.73 144.13 448.02 145.86 Q 448.78 150.45 448.48 156.97 Q 448.35 159.65 445.75 159.00 Q 445.06 158.83 444.60 157.53 Q 444.44 157.06 444.05 157.38 Q 439.51 161.31 435.31 158.19 Q 432.62 156.18 434.06 152.06 Q 434.53 150.55 435.98 149.92 Q 439.06 148.59 443.00 148.75 Q 443.82 148.78 443.81 147.96 Q 443.78 145.18 441.00 145.50 Q 439.34 145.69 437.88 146.27 Q 436.94 146.63 436.37 145.80 Q 434.71 143.52 436.94 142.94 Q 442.38 141.52 446.19 143.31 Z M 438.69 152.94 Q 436.89 156.02 440.00 156.00 Q 443.66 155.97 443.94 152.69 Q 444.03 151.64 442.50 151.50 Q 439.67 151.24 438.69 152.94 Z"/>
<path fill="rgb(236,173,43)" fill-opacity="1.000" d="M 480.25 142.25 Q 484.15 141.89 486.44 144.31 Q 489.01 147.04 488.16 151.07 Q 488.06 151.56 487.56 151.60 Q 483.74 151.89 479.19 151.75 Q 477.58 151.70 478.00 153.25 Q 478.35 154.87 479.81 155.44 Q 483.09 156.72 486.73 155.02 Q 487.19 154.81 487.40 155.27 Q 487.97 156.50 487.40 157.73 Q 487.19 158.19 486.73 158.39 Q 482.88 160.13 478.25 158.75 Q 474.67 157.68 473.69 154.06 Q 472.26 149.11 474.69 145.19 Q 476.32 142.55 480.25 142.25 Z M 478.33 147.46 Q 477.77 148.66 479.10 148.73 Q 480.59 148.79 483.25 148.75 Q 484.05 148.74 483.87 147.95 Q 483.44 145.81 481.75 145.50 Q 479.40 145.07 478.33 147.46 Z"/>
<path fill="rgb(236,173,43)" fill-opacity="1.000" d="M 511.97 143.81 Q 512.00 144.20 511.50 145.25 Q 510.86 146.58 509.47 146.08 Q 506.79 145.11 504.81 145.81 Q 503.13 146.41 504.69 147.31 Q 507.73 149.07 510.17 150.25 Q 512.01 151.15 512.20 153.18 Q 512.64 157.57 509.19 158.69 Q 504.69 160.14 500.78 158.62 Q 500.31 158.44 500.11 157.98 Q 499.74 157.18 499.98 155.60 Q 500.14 154.58 501.09 154.97 Q 505.24 156.65 507.41 155.58 Q 509.38 154.60 507.44 153.56 Q 504.70 152.21 502.06 150.69 Q 499.24 149.05 500.19 145.69 Q 500.94 142.94 504.19 142.44 Q 507.74 141.89 511.46 143.15 Q 511.94 143.31 511.97 143.81 Z"/>
<path fill="rgb(236,173,43)" fill-opacity="1.000" d="M 527.67 142.71 Q 530.80 141.91 531.21 143.95 Q 531.31 144.44 531.63 144.05 Q 532.34 143.15 533.81 142.56 Q 537.99 140.88 541.39 144.15 Q 541.75 144.50 542.04 144.09 Q 543.57 141.98 547.50 142.25 Q 550.94 142.48 551.75 145.25 Q 553.13 150.27 552.12 158.32 Q 552.06 158.81 551.57 158.92 Q 550.00 159.28 548.42 158.92 Q 547.94 158.81 547.88 158.31 Q 547.62 155.84 547.79 149.20 Q 547.84 147.33 546.43 146.10 Q 545.28 145.10 543.63 146.19 Q 542.00 147.26 542.00 149.21 Q 542.00 153.75 542.00 157.75 Q 542.00 158.78 540.98 158.91 Q 538.57 159.21 538.01 158.92 Q 537.56 158.69 537.57 158.19 Q 537.42 153.75 537.31 148.94 Q 537.24 145.67 535.09 145.73 Q 531.72 145.82 531.75 149.19 Q 531.79 154.40 531.70 158.19 Q 531.69 158.69 531.24 158.90 Q 530.57 159.21 528.04 158.92 Q 527.00 158.80 527.00 157.75 Q 527.00 150.63 527.00 143.58 Q 527.00 142.88 527.67 142.71 Z"/>
<path fill="rgb(236,173,43)" fill-opacity="1.000" d="M 569.44 142.62 Q 571.03 143.24 571.79 144.77 Q 574.21 149.77 572.56 154.81 Q 571.50 158.06 568.69 158.94 Q 565.32 159.93 562.83 157.70 Q 562.25 157.16 562.25 157.95 Q 562.25 161.50 562.25 165.00 Q 562.25 166.08 561.18 166.20 Q 558.93 166.46 558.27 166.15 Q 557.81 165.94 557.81 165.44 Q 557.70 154.98 557.75 144.00 Q 557.76 142.79 558.93 142.52 Q 561.34 142.02 562.31 144.44 Q 562.38 144.59 563.56 143.31 Q 566.04 141.06 569.44 142.62 Z M 565.5424 155.6997 A 5.00 3.19 89.4 0 0 568.6798 150.6666 A 5.00 3.19 89.4 0 0 565.4376 145.7003 A 5.00 3.19 89.4 0 0 562.3002 150.7334 A 5.00 3.19 89.4 0 0 565.5424 155.6997 Z"/>
<path fill="rgb(236,173,43)" fill-opacity="1.000" d="M 593.75 142.25 Q 597.27 141.69 599.69 143.56 Q 602.54 145.77 602.31 149.94 Q 602.25 151.80 600.75 151.75 Q 596.26 151.61 592.44 151.90 Q 591.94 151.94 591.84 152.43 Q 591.49 154.28 593.81 155.44 Q 596.61 156.84 600.31 155.06 Q 601.25 154.67 601.41 155.68 Q 601.77 158.17 600.31 158.56 Q 594.00 160.49 589.81 157.44 Q 587.40 155.67 587.25 152.25 Q 586.80 148.02 588.94 144.94 Q 590.48 142.71 593.75 142.25 Z M 592.33 147.46 Q 591.77 148.66 593.10 148.73 Q 594.59 148.79 597.25 148.75 Q 598.39 148.73 597.98 147.67 Q 597.29 145.75 595.75 145.50 Q 593.38 145.12 592.33 147.46 Z"/>
<rect fill="rgb(236,173,43)" fill-opacity="1.000" x="-2.25" y="-8.25" width="4.50" height="16.50" rx="0.65" transform="translate(142.00,150.75) rotate(0.0)"/>
<rect fill="rgb(236,173,43)" fill-opacity="1.000" x="-2.26" y="-8.23" width="4.52" height="16.46" rx="0.50" transform="translate(249.98,150.74) rotate(0.0)"/>
<path fill="rgb(236,173,43)" fill-opacity="1.000" d="M 334.84 142.53 Q 336.64 142.70 336.50 144.50 Q 336.04 150.32 337.18 154.46 Q 337.31 154.94 337.73 155.22 Q 340.37 157.03 342.18 154.11 Q 342.44 153.69 342.49 153.19 Q 342.90 149.05 342.82 143.31 Q 342.81 142.81 343.28 142.64 Q 345.00 142.03 346.72 142.64 Q 347.19 142.81 347.20 143.31 Q 347.34 150.75 347.20 158.19 Q 347.19 158.69 346.74 158.91 Q 345.55 159.52 343.94 158.81 Q 343.30 158.53 343.39 158.12 Q 343.49 156.39 342.26 157.61 Q 340.27 159.55 337.25 159.25 Q 333.24 158.94 332.50 155.75 Q 331.31 150.61 332.13 143.18 Q 332.19 142.69 332.66 142.52 Q 333.11 142.37 334.84 142.53 Z"/>
<rect fill="rgb(236,173,43)" fill-opacity="1.000" x="-2.25" y="-8.25" width="4.50" height="16.50" rx="0.63" transform="translate(519.25,150.74) rotate(0.0)"/>
<path fill="rgb(3,97,109)" fill-opacity="1.000" d="M 100.81 145.69 Q 103.06 146.61 102.67 148.08 Q 102.56 148.56 102.07 148.64 Q 98.80 149.12 97.04 148.58 Q 96.56 148.44 96.68 147.95 Q 97.57 144.36 100.81 145.69 Z"/>
<path fill="rgb(3,97,109)" fill-opacity="1.000" d="M 375.44 145.56 Q 377.14 146.12 377.30 148.09 Q 377.41 148.74 376.75 148.75 Q 373.95 148.79 372.03 148.71 Q 371.18 148.67 371.52 147.89 Q 372.87 144.73 375.44 145.56 Z"/>
<path fill="rgb(3,97,109)" fill-opacity="1.000" d="M 481.75 145.50 Q 483.44 145.81 483.87 147.95 Q 484.05 148.74 483.25 148.75 Q 480.59 148.79 479.10 148.73 Q 477.77 148.66 478.33 147.46 Q 479.40 145.07 481.75 145.50 Z"/>
<path fill="rgb(3,97,109)" fill-opacity="1.000" d="M 595.75 145.50 Q 597.29 145.75 597.98 147.67 Q 598.39 148.73 597.25 148.75 Q 594.59 148.79 593.10 148.73 Q 591.77 148.66 592.33 147.46 Q 593.38 145.12 595.75 145.50 Z"/>
<ellipse fill="rgb(3,97,109)" fill-opacity="1.000" cx="0" cy="0" rx="4.99" ry="3.39" transform="translate(126.50,150.73) rotate(89.6)"/>
<ellipse fill="rgb(3,97,109)" fill-opacity="1.000" cx="0" cy="0" rx="5.00" ry="3.19" transform="translate(565.49,150.70) rotate(89.4)"/>
<rect fill="rgb(3,97,109)" fill-opacity="1.000" x="-3.16" y="-4.80" width="6.32" height="9.60" rx="2.89" transform="translate(156.80,150.85) rotate(-1.5)"/>
<rect fill="rgb(3,97,109)" fill-opacity="1.000" x="-3.21" y="-4.84" width="6.42" height="9.68" rx="3.06" transform="translate(264.76,150.85) rotate(-0.8)"/>
<ellipse fill="rgb(3,97,109)" fill-opacity="1.000" cx="0" cy="0" rx="4.98" ry="3.39" transform="translate(460.97,150.81) rotate(90.1)"/>
<path fill="rgb(3,97,109)" fill-opacity="1.000" d="M 203.49 152.00 Q 203.42 156.53 199.19 155.81 Q 197.24 155.48 198.13 153.03 Q 198.31 152.56 198.72 152.28 Q 200.44 151.08 203.00 151.43 Q 203.50 151.50 203.49 152.00 Z"/>
<path fill="rgb(3,97,109)" fill-opacity="1.000" d="M 307.94 152.94 Q 307.67 155.69 304.50 156.00 Q 301.10 156.34 302.69 153.19 Q 303.66 151.27 306.50 151.50 Q 308.07 151.63 307.94 152.94 Z"/>
<path fill="rgb(3,97,109)" fill-opacity="1.000" d="M 443.94 152.69 Q 443.66 155.97 440.00 156.00 Q 436.89 156.02 438.69 152.94 Q 439.67 151.24 442.50 151.50 Q 444.03 151.64 443.94 152.69 Z"/>
<path fill="rgb(236,173,43)" fill-opacity="1.000" d="M 390.60 155.55 Q 389.79 157.97 388.56 161.56 Q 388.10 162.93 385.64 162.62 Q 384.98 162.52 385.14 161.87 Q 385.57 160.09 386.43 155.73 Q 386.58 154.96 387.33 154.78 Q 388.94 154.40 390.22 154.88 Q 390.69 155.06 390.60 155.55 Z"/>
</svg>